<svg width="20" height="19" viewBox="0 0 20 19" fill="none" xmlns="http://www.w3.org/2000/svg">
<mask id="mask0_34_419" style="mask-type:alpha" maskUnits="userSpaceOnUse" x="-1" y="-2" width="22" height="21">
<path fill-rule="evenodd" clip-rule="evenodd" d="M9.85728 -1.55356C4.3503 -1.55356 -0.110107 2.90685 -0.110107 8.41383C-0.110107 12.8244 2.74306 16.5497 6.70509 17.8704C7.20346 17.9576 7.39035 17.6586 7.39035 17.3969C7.39035 17.1602 7.37789 16.3753 7.37789 15.5405C4.87359 16.0015 4.22571 14.93 4.02636 14.3693C3.91423 14.0828 3.42832 13.1982 3.0047 12.9614C2.65584 12.7746 2.15747 12.3136 2.99224 12.3011C3.77717 12.2886 4.33784 13.0237 4.52473 13.3228C5.42179 14.8303 6.8546 14.4067 7.42773 14.1451C7.51494 13.4972 7.77659 13.0611 8.06315 12.8119C5.84541 12.5628 3.52799 11.7031 3.52799 7.89054C3.52799 6.80659 3.91422 5.90952 4.54965 5.2118C4.44997 4.96262 4.10111 3.94096 4.64932 2.57045C4.64932 2.57045 5.48409 2.3088 7.39035 3.59211C8.18774 3.36784 9.03497 3.25571 9.8822 3.25571C10.7294 3.25571 11.5767 3.36784 12.374 3.59211C14.2803 2.29635 15.1151 2.57045 15.1151 2.57045C15.6633 3.94096 15.3144 4.96262 15.2148 5.2118C15.8502 5.90952 16.2364 6.79413 16.2364 7.89054C16.2364 11.7155 13.9065 12.5628 11.6888 12.8119C12.0501 13.1234 12.3616 13.7215 12.3616 14.6559C12.3616 15.989 12.3491 17.0605 12.3491 17.3969C12.3491 17.6586 12.536 17.9701 13.0344 17.8704C16.9715 16.5497 19.8247 12.8119 19.8247 8.41383C19.8247 2.90685 15.3643 -1.55356 9.85728 -1.55356V-1.55356Z" stroke="white" stroke-width="0.866729"/>
</mask>
<g mask="url(#mask0_34_419)">
<path d="M12.8909 19.0313V15.9977L13.7577 16.4311L17.6579 11.6641L17.2246 5.59695L15.9245 1.69667L14.191 0.829941L5.52372 0.396576L2.92354 2.99676L0.756714 9.9306L2.05681 13.3975L3.79027 15.5643L5.95709 16.8644L6.82382 16.4311V18.5979L12.8909 19.0313Z" fill="white"/>
</g>
</svg>
